<svg xmlns="http://www.w3.org/2000/svg" xmlns:xlink="http://www.w3.org/1999/xlink" viewBox="-5 5 162 196">
  <defs>
    <linearGradient id="gradient_0" gradientUnits="userSpaceOnUse" x1="245.32301" y1="571.04156" x2="253.0838" y2="495.68634">
      <stop offset="0" stop-color="#1861C1"/>
      <stop offset="1" stop-color="#069CE8"/>
    </linearGradient>
  </defs>
  <g transform="translate(-217 -400)">
    <path fill="#02A8F0" d="M224.514 423.575L267.031 423.544L267.025 483.425C275.269 483.297 287.794 483.537 295.598 482.99C290.648 488.945 286.484 494.407 281.789 500.522C263.055 524.819 243.125 548.402 224.424 572.724C225.367 547.727 224.556 518.16 224.624 492.691L224.514 423.575Z"/>
    <path fill="url(#gradient_0)" d="M224.624 492.691L225.453 495.49L225.698 493.553C227.837 493.305 231.72 493.798 233.995 493.958C247.488 494.911 264.262 496.447 277.329 499.88L279.99 498.91C281.45 499.65 280.865 499.141 281.789 500.522C263.055 524.819 243.125 548.402 224.424 572.724C225.367 547.727 224.556 518.16 224.624 492.691Z"/>
    <path fill="#0F104F" d="M358.4 434.878C359.573 436.081 359.013 479.759 359.013 485.976L359.026 584.477L332.936 584.53C328.029 584.543 321.304 584.353 316.557 585.012C317.027 576.875 316.83 567.493 316.832 559.25L316.919 521.835C308.733 521.509 298.255 521.92 289.69 521.822L358.4 434.878Z"/>
    <path fill="#02A8F0" d="M368.902 408.508C368.694 409.887 368.1 410.821 367.226 411.892C350.296 432.629 333.873 454.375 316.897 475.015C315.561 470.271 316.52 431.032 316.533 423.443C329.159 423.537 341.785 423.537 354.41 423.442C359.384 418.629 363.975 413.376 368.902 408.508Z"/>
    <path fill="#0F104F" d="M266.303 531.841C266.66 533.27 266.819 542.014 266.841 543.978C266.987 557.476 266.883 570.989 266.964 584.501C253.851 584.76 240.734 584.86 227.618 584.801C224.267 587.718 218.011 594.646 214.719 598.094L214.178 598.029C215.11 595.849 224.89 583.53 227.142 580.711C240.245 564.307 253.462 548.492 266.303 531.841"/>
    <path fill="#02A8F0" d="M292.192 498.414C295.923 493.749 302.306 484.484 307.702 482.594L308.61 482.948C308.888 486.469 299.618 497.077 296.946 500.204C296.601 500.603 296.251 501 295.898 501.392C294.796 500.267 293.465 499.366 292.192 498.414Z"/>
    <path fill="#0F104F" d="M284.6 508.419C286.202 509.055 287.335 509.348 288.589 510.533C285.989 514.011 280.945 521.954 276.512 522.3L275.97 521.704C276.231 518.051 282.069 511.592 284.6 508.419Z"/>
    <path fill="#083491" d="M292.192 498.414C293.465 499.366 294.796 500.267 295.898 501.392C293.505 504.474 291.069 507.521 288.589 510.533C287.335 509.348 286.202 509.055 284.6 508.419C286.175 505.875 290.219 500.958 292.192 498.414Z"/>
  </g>
</svg>
